<svg width="256" height="256" viewBox="0 0 256 256" fill="none" xmlns="http://www.w3.org/2000/svg">
<g clip-path="url(#clip0_246_219)">
<mask id="mask0_246_219" style="mask-type:luminance" maskUnits="userSpaceOnUse" x="0" y="0" width="256" height="256">
<path d="M256 0H0V256H256V0Z" fill="white"/>
</mask>
<g mask="url(#mask0_246_219)">
<path d="M208.117 136.159C206.101 152.441 199.301 167.76 188.579 180.179C177.857 192.597 163.693 201.557 147.878 205.925C132.063 210.293 115.309 209.874 99.7325 204.72C84.1563 199.566 70.4582 189.909 60.3704 176.97C50.2827 164.031 44.2584 148.391 43.0593 132.028C41.8602 115.665 45.5402 99.3139 53.634 85.0425C61.7277 70.7711 73.8717 59.2202 88.5302 51.8506C103.189 44.481 119.703 41.6237 135.986 43.6399C157.82 46.3436 177.685 57.61 191.212 74.9607C204.74 92.3114 210.82 114.325 208.117 136.159Z" fill="#E85A5E"/>
<path d="M172.743 50.934C153.526 39.7912 130.839 36.2318 109.133 40.9541C87.4265 45.6764 68.2686 58.3396 55.4179 76.459C55.0703 76.9497 54.9319 77.5583 55.0331 78.151C55.1343 78.7437 55.4667 79.2719 55.9574 79.6195C56.448 79.9671 57.0567 80.1055 57.6494 80.0043C58.2421 79.9031 58.7703 79.5707 59.1179 79.08C71.717 61.3355 90.6711 49.1304 112.039 45.0027C133.406 40.8751 155.542 45.1426 173.844 56.9178C192.145 68.693 205.204 87.0697 210.303 108.226C215.403 129.383 212.151 151.691 201.225 170.511C190.298 189.332 172.537 203.216 151.636 209.277C130.734 215.338 108.301 213.109 89.0009 203.054C69.7008 192.998 55.0194 175.89 48.0098 155.288C41.0002 134.685 42.2018 112.173 51.3649 92.434C51.5991 91.8922 51.6126 91.2803 51.4025 90.7287C51.1925 90.177 50.7755 89.7291 50.2402 89.4803C49.7049 89.2314 49.0937 89.2012 48.5365 89.3961C47.9794 89.5911 47.5203 89.9957 47.2569 90.524C40.0124 106.182 37.4745 123.607 39.9517 140.681C42.429 157.754 49.8147 173.74 61.2104 186.693C72.6061 199.646 87.5206 209.008 104.139 213.64C120.758 218.273 138.365 217.975 154.818 212.785C171.271 207.594 185.861 197.734 196.813 184.404C207.765 171.073 214.607 154.847 216.506 137.7C218.406 120.552 215.281 103.222 207.512 87.8183C199.743 72.4141 187.665 59.5997 172.747 50.934" fill="#3D5684"/>
<path d="M200.375 108.769C195.585 90.76 184.239 75.1907 168.562 65.1162C152.885 55.0416 134.009 51.1889 115.638 54.314C115.141 54.3984 114.698 54.6768 114.406 55.0879C114.115 55.499 113.998 56.0091 114.083 56.506C114.167 57.0029 114.446 57.4458 114.857 57.7375C115.268 58.0291 115.778 58.1454 116.275 58.061C134.276 55.0075 152.761 59.0102 167.886 69.2366C183.011 79.4631 193.613 95.1262 197.485 112.969C201.358 130.811 198.204 149.46 188.679 165.037C179.154 180.613 163.992 191.919 146.345 196.603C128.698 201.287 109.925 198.988 93.929 190.185C77.9335 181.382 65.9468 166.752 60.4616 149.337C54.9765 131.922 56.4152 113.064 64.4784 96.6826C72.5417 80.3015 86.6089 67.659 103.755 61.384C104.219 61.2049 104.595 60.8508 104.801 60.3977C105.007 59.9446 105.027 59.4288 104.856 58.9611C104.686 58.4934 104.339 58.1112 103.89 57.8967C103.441 57.6822 102.926 57.6525 102.455 57.814C88.8693 62.8046 77.0269 71.6357 68.3684 83.2332C59.7099 94.8307 54.6084 108.694 53.6845 123.138C52.7607 137.582 56.0543 151.982 63.1647 164.589C70.2751 177.195 80.8957 187.463 93.7347 194.143C106.574 200.824 121.077 203.63 135.482 202.219C149.886 200.808 163.569 195.241 174.868 186.196C186.166 177.151 194.593 165.017 199.122 151.271C203.651 137.525 204.088 122.759 200.379 108.769" fill="white"/>
<path d="M140.246 127.745L161.529 106.462C169.602 98.389 157.492 86.278 149.418 94.352L128.136 115.635L106.853 94.352C98.7789 86.278 86.6689 98.389 94.7429 106.462L116.025 127.745L94.7429 149.028C86.6689 157.101 98.7789 169.211 106.853 161.138L128.136 139.855L149.418 161.138C157.492 169.211 169.602 157.101 161.529 149.028L140.246 127.745Z" fill="white"/>
<path d="M140.246 127.745L161.529 106.462C169.602 98.389 157.492 86.278 149.418 94.352L128.136 115.635L106.853 94.352C98.7789 86.278 86.6689 98.389 94.7429 106.462L116.025 127.745L94.7429 149.028C86.6689 157.101 98.7789 169.211 106.853 161.138L128.136 139.855L149.418 161.138C157.492 169.211 169.602 157.101 161.529 149.028L140.246 127.745Z" stroke="#3D5684" stroke-width="3" stroke-miterlimit="10"/>
</g>
</g>
<defs>
<clipPath id="clip0_246_219">
<rect width="256" height="256" fill="white"/>
</clipPath>
</defs>
</svg>
